<svg width="680" height="360" viewBox="0 0 680 360" role="img" xmlns="http://www.w3.org/2000/svg">
<title>paul@homelab neofetch terminal</title>
<desc>A dark terminal window titled paul@homelab listing Proxmox cluster details, next to a three-blade server rack with animated status lights.</desc>

<rect x="40" y="20" width="600" height="320" rx="10" fill="#0d1117" stroke="#30363d" stroke-width="1"/>
<rect x="40" y="20" width="600" height="34" rx="10" fill="#161b22"/>
<rect x="40" y="44" width="600" height="10" fill="#161b22"/>
<line x1="40" y1="54" x2="640" y2="54" stroke="#30363d" stroke-width="1"/>
<circle cx="64" cy="37" r="6" fill="#ff5f56"/>
<circle cx="84" cy="37" r="6" fill="#ffbd2e"/>
<circle cx="104" cy="37" r="6" fill="#27c93f"/>
<text x="340" y="42" text-anchor="middle" font-family="ui-monospace,SFMono-Regular,Menlo,Consolas,'Liberation Mono',monospace" font-size="13" fill="#8b949e">paul@homelab: ~</text>

<rect x="70" y="80" width="156" height="246" rx="8" fill="#11161d" stroke="#30363d" stroke-width="1"/>

<g>
<rect x="82" y="92" width="132" height="64" rx="5" fill="#161b22" stroke="#30363d" stroke-width="1"/>
<rect x="90" y="104" width="6" height="40" rx="2" fill="#3a4250"/>
<line x1="104" y1="108" x2="150" y2="108" stroke="#2a313b" stroke-width="2"/>
<line x1="104" y1="116" x2="150" y2="116" stroke="#2a313b" stroke-width="2"/>
<line x1="104" y1="124" x2="150" y2="124" stroke="#2a313b" stroke-width="2"/>
<line x1="104" y1="132" x2="150" y2="132" stroke="#2a313b" stroke-width="2"/>
<circle cx="196" cy="110" r="3.4" fill="#3fb950"><animate attributeName="opacity" values="1;0.2;1" dur="1.3s" begin="0s" repeatCount="indefinite"/></circle>
<circle cx="196" cy="124" r="3.4" fill="#3fb950"><animate attributeName="opacity" values="0.3;1;0.3" dur="1.7s" begin="0.2s" repeatCount="indefinite"/></circle>
<circle cx="196" cy="138" r="3.4" fill="#d29922"><animate attributeName="opacity" values="1;0.4;1" dur="0.9s" begin="0.4s" repeatCount="indefinite"/></circle>
</g>

<g>
<rect x="82" y="170" width="132" height="64" rx="5" fill="#161b22" stroke="#30363d" stroke-width="1"/>
<rect x="90" y="182" width="6" height="40" rx="2" fill="#3a4250"/>
<line x1="104" y1="186" x2="150" y2="186" stroke="#2a313b" stroke-width="2"/>
<line x1="104" y1="194" x2="150" y2="194" stroke="#2a313b" stroke-width="2"/>
<line x1="104" y1="202" x2="150" y2="202" stroke="#2a313b" stroke-width="2"/>
<line x1="104" y1="210" x2="150" y2="210" stroke="#2a313b" stroke-width="2"/>
<circle cx="196" cy="188" r="3.4" fill="#3fb950"><animate attributeName="opacity" values="0.3;1;0.3" dur="1.1s" begin="0.1s" repeatCount="indefinite"/></circle>
<circle cx="196" cy="202" r="3.4" fill="#3fb950"><animate attributeName="opacity" values="1;0.25;1" dur="1.9s" begin="0.5s" repeatCount="indefinite"/></circle>
<circle cx="196" cy="216" r="3.4" fill="#58a6ff"><animate attributeName="opacity" values="0.4;1;0.4" dur="1.5s" begin="0.3s" repeatCount="indefinite"/></circle>
</g>

<g>
<rect x="82" y="248" width="132" height="64" rx="5" fill="#161b22" stroke="#30363d" stroke-width="1"/>
<rect x="90" y="260" width="6" height="40" rx="2" fill="#3a4250"/>
<line x1="104" y1="264" x2="150" y2="264" stroke="#2a313b" stroke-width="2"/>
<line x1="104" y1="272" x2="150" y2="272" stroke="#2a313b" stroke-width="2"/>
<line x1="104" y1="280" x2="150" y2="280" stroke="#2a313b" stroke-width="2"/>
<line x1="104" y1="288" x2="150" y2="288" stroke="#2a313b" stroke-width="2"/>
<circle cx="196" cy="266" r="3.4" fill="#3fb950"><animate attributeName="opacity" values="1;0.3;1" dur="1.4s" begin="0.6s" repeatCount="indefinite"/></circle>
<circle cx="196" cy="280" r="3.4" fill="#d29922"><animate attributeName="opacity" values="0.3;1;0.3" dur="1.0s" begin="0.2s" repeatCount="indefinite"/></circle>
<circle cx="196" cy="294" r="3.4" fill="#3fb950"><animate attributeName="opacity" values="1;0.35;1" dur="1.6s" begin="0.4s" repeatCount="indefinite"/></circle>
</g>

<text x="250" y="104" font-family="ui-monospace,SFMono-Regular,Menlo,Consolas,'Liberation Mono',monospace" font-size="13" xml:space="preserve"><tspan fill="#F97316">paul</tspan><tspan fill="#8b949e">@</tspan><tspan fill="#58a6ff">homelab</tspan></text>
<text x="250" y="126" font-family="ui-monospace,SFMono-Regular,Menlo,Consolas,'Liberation Mono',monospace" font-size="13" fill="#30363d">─────────────────────────</text>
<text x="250" y="150" font-family="ui-monospace,SFMono-Regular,Menlo,Consolas,'Liberation Mono',monospace" font-size="13" xml:space="preserve"><tspan fill="#F97316">OS      </tspan><tspan fill="#c9d1d9">Proxmox VE 8.4</tspan></text>
<text x="250" y="174" font-family="ui-monospace,SFMono-Regular,Menlo,Consolas,'Liberation Mono',monospace" font-size="13" xml:space="preserve"><tspan fill="#F97316">Host    </tspan><tspan fill="#c9d1d9">2-node cluster (pjind + lenovo)</tspan></text>
<text x="250" y="198" font-family="ui-monospace,SFMono-Regular,Menlo,Consolas,'Liberation Mono',monospace" font-size="13" xml:space="preserve"><tspan fill="#F97316">Kernel  </tspan><tspan fill="#c9d1d9">6.8.12-pve</tspan></text>
<text x="250" y="222" font-family="ui-monospace,SFMono-Regular,Menlo,Consolas,'Liberation Mono',monospace" font-size="13" xml:space="preserve"><tspan fill="#F97316">Guests  </tspan><tspan fill="#c9d1d9">~15 LXC · 3 VM</tspan></text>
<text x="250" y="246" font-family="ui-monospace,SFMono-Regular,Menlo,Consolas,'Liberation Mono',monospace" font-size="13" xml:space="preserve"><tspan fill="#F97316">Stack   </tspan><tspan fill="#c9d1d9">Jellyfin · Immich · Vaultwarden</tspan></text>
<text x="250" y="270" font-family="ui-monospace,SFMono-Regular,Menlo,Consolas,'Liberation Mono',monospace" font-size="13" xml:space="preserve"><tspan fill="#F97316">Net     </tspan><tspan fill="#c9d1d9">pfSense · AdGuard · Tailscale</tspan></text>

<rect x="250" y="285" width="18" height="13" fill="#21262d"/>
<rect x="270" y="285" width="18" height="13" fill="#ff5f56"/>
<rect x="290" y="285" width="18" height="13" fill="#d29922"/>
<rect x="310" y="285" width="18" height="13" fill="#3fb950"/>
<rect x="330" y="285" width="18" height="13" fill="#58a6ff"/>
<rect x="350" y="285" width="18" height="13" fill="#bc8cff"/>
<rect x="370" y="285" width="18" height="13" fill="#39c5cf"/>
<rect x="390" y="285" width="18" height="13" fill="#c9d1d9"/>

<text x="250" y="320" font-family="ui-monospace,SFMono-Regular,Menlo,Consolas,'Liberation Mono',monospace" font-size="13" xml:space="preserve"><tspan fill="#F97316">paul</tspan><tspan fill="#8b949e">@</tspan><tspan fill="#58a6ff">homelab</tspan><tspan fill="#8b949e">:~$ </tspan></text>
<rect x="384" y="309" width="9" height="14" fill="#F97316"><animate attributeName="opacity" values="1;1;0;0" dur="1.1s" repeatCount="indefinite"/></rect>
</svg>
